# MagicaVoxel @ Ephtracy

# group
o 

# material
mtllib BOX.mtl
usemtl palette

# normals
vn -1 0 0
vn 1 0 0
vn 0 0 1
vn 0 0 -1
vn 0 -1 0
vn 0 1 0

# texcoords
vt 0.119141 0.5
vt 0.955078 0.5
vt 0.958984 0.5
vt 0.966797 0.5
vt 0.994141 0.5

# verts
v 0 2.3 -0.2
v 0 2.3 -0.3
v 0 2.3 -3.8
v 0 2.3 -3.9
v 0 3 -0.2
v 0 3 -0.3
v 0 4.4 -0.2
v 0 4.4 -0.3
v 0 5.2 -0.2
v 0 5.2 -0.3
v 0 5.2 -3.8
v 0 5.2 -3.9
v 0 5.3 -0.3
v 0 5.3 -3.8
v 3.5 4 -0.2
v 3.5 4 -0.3
v 3.5 4.1 -0.2
v 3.5 4.1 -0.3
v 3.6 4.1 -0.2
v 3.6 4.1 -0.3
v 3.6 4.2 -0.2
v 3.6 4.2 -0.3
v 3.7 4.2 -0.2
v 3.7 4.2 -0.3
v 3.7 4.3 -0.2
v 3.7 4.3 -0.3
v 3.8 4.3 -0.2
v 3.8 4.3 -0.3
v 3.8 4.4 -0.2
v 3.8 4.4 -0.3
v 3.9 2.3 -3.8
v 3.9 2.3 -3.9
v 3.9 2.4 -3.8
v 3.9 4.4 -0.2
v 3.9 4.4 -0.3
v 3.9 5.1 -0.2
v 3.9 5.1 -0.3
v 3.9 5.2 -0.3
v 3.9 5.2 -3.8
v 3.9 5.2 -3.9
v 3.9 5.3 -0.3
v 3.9 5.3 -3.8
v 0.1 2.3 -3.8
v 0.1 2.3 -3.9
v 0.1 2.4 -3.8
v 0.1 5.2 -0.3
v 0.1 5.2 -3.8
v 0.1 5.2 -3.9
v 0.1 5.3 -0.3
v 0.1 5.3 -3.8
v 1.9 4.6 -0.2
v 1.9 4.6 -0.3
v 1.9 5.1 -0.2
v 1.9 5.1 -0.3
v 2.3 4.3 -0.2
v 2.3 4.3 -0.3
v 2.3 4.6 -0.2
v 2.3 4.6 -0.3
v 2.8 4 -0.2
v 2.8 4 -0.3
v 2.8 4.3 -0.2
v 2.8 4.3 -0.3
v 3.4 3.8 -0.2
v 3.4 3.8 -0.3
v 3.4 3.9 -0.2
v 3.4 3.9 -0.3
v 3.5 3.6 -0.2
v 3.5 3.6 -0.3
v 3.5 3.8 -0.2
v 3.5 3.8 -0.3
v 3.5 3.9 -0.2
v 3.5 3.9 -0.3
v 3.5 4 -0.2
v 3.5 4 -0.3
v 3.6 4 -0.2
v 3.6 4 -0.3
v 3.6 4.1 -0.2
v 3.6 4.1 -0.3
v 3.7 3.3 -0.2
v 3.7 3.3 -0.3
v 3.7 3.6 -0.2
v 3.7 3.6 -0.3
v 3.7 4.1 -0.2
v 3.7 4.1 -0.3
v 3.7 4.2 -0.2
v 3.7 4.2 -0.3
v 3.8 4.2 -0.2
v 3.8 4.2 -0.3
v 3.8 4.3 -0.2
v 3.8 4.3 -0.3
v 3.9 4.3 -0.2
v 3.9 4.3 -0.3
v 3.9 4.4 -0.2
v 3.9 4.4 -0.3
v 4 2.3 -0.2
v 4 2.3 -0.3
v 4 2.3 -3.8
v 4 2.3 -3.9
v 4 2.4 -0.3
v 4 2.4 -3.8
v 4 3 -0.2
v 4 3 -0.3
v 4 3.1 -0.3
v 4 3.1 -3.8
v 4 3.3 -0.2
v 4 3.3 -0.3
v 4 4.4 -0.2
v 4 4.4 -0.3
v 4 5.2 -0.2
v 4 5.2 -0.3
v 4 5.2 -3.8
v 4 5.2 -3.9
v 4 5.3 -0.3
v 4 5.3 -3.8
v 0 2.3 -0.2
v 0 3 -0.2
v 0 4.4 -0.2
v 0 5.2 -0.2
v 0.1 2.7 -0.2
v 0.1 3 -0.2
v 0.1 4.3 -0.2
v 0.1 4.4 -0.2
v 0.1 5.1 -0.2
v 0.2 2.4 -0.2
v 0.2 2.6 -0.2
v 0.2 2.7 -0.2
v 0.2 4.2 -0.2
v 0.2 4.3 -0.2
v 0.2 4.4 -0.2
v 0.3 2.5 -0.2
v 0.3 2.6 -0.2
v 0.3 4.1 -0.2
v 0.3 4.2 -0.2
v 0.3 4.3 -0.2
v 0.4 2.3 -0.2
v 0.4 2.4 -0.2
v 0.4 2.5 -0.2
v 0.4 4 -0.2
v 0.4 4.1 -0.2
v 0.4 4.2 -0.2
v 0.5 3 -0.2
v 0.5 3.8 -0.2
v 0.5 3.9 -0.2
v 0.5 4 -0.2
v 0.5 4.1 -0.2
v 0.5 4.9 -0.2
v 0.5 5.1 -0.2
v 0.6 3.8 -0.2
v 0.6 3.9 -0.2
v 0.6 4 -0.2
v 0.6 4.6 -0.2
v 0.6 4.9 -0.2
v 0.7 2.3 -0.2
v 0.7 2.4 -0.2
v 0.7 3 -0.2
v 0.7 3.5 -0.2
v 0.7 3.6 -0.2
v 0.7 3.7 -0.2
v 0.7 3.9 -0.2
v 0.7 4.3 -0.2
v 0.7 4.6 -0.2
v 0.8 3.6 -0.2
v 0.8 3.7 -0.2
v 0.8 4.1 -0.2
v 0.8 4.3 -0.2
v 0.9 2.9 -0.2
v 0.9 3 -0.2
v 0.9 3.5 -0.2
v 0.9 3.9 -0.2
v 0.9 4.1 -0.2
v 1 2.7 -0.2
v 1 2.9 -0.2
v 1 3.8 -0.2
v 1 3.9 -0.2
v 1.1 2.5 -0.2
v 1.1 2.7 -0.2
v 1.1 3.7 -0.2
v 1.1 3.8 -0.2
v 1.2 2.3 -0.2
v 1.2 2.4 -0.2
v 1.2 3.4 -0.2
v 1.2 3.5 -0.2
v 1.3 3.6 -0.2
v 1.3 3.7 -0.2
v 1.6 2.4 -0.2
v 1.6 2.5 -0.2
v 1.7 2.3 -0.2
v 1.7 2.4 -0.2
v 1.7 3.1 -0.2
v 1.7 3.3 -0.2
v 1.9 4.6 -0.2
v 1.9 5.1 -0.2
v 2 3.1 -0.2
v 2 3.3 -0.2
v 2.3 4.3 -0.2
v 2.3 4.6 -0.2
v 2.3 5.1 -0.2
v 2.3 5.2 -0.2
v 2.4 3.1 -0.2
v 2.4 3.3 -0.2
v 2.8 2.3 -0.2
v 2.8 2.4 -0.2
v 2.8 3.4 -0.2
v 2.8 3.5 -0.2
v 2.8 3.6 -0.2
v 2.8 4 -0.2
v 2.8 4.3 -0.2
v 3.1 3 -0.2
v 3.1 3.5 -0.2
v 3.1 3.6 -0.2
v 3.2 3.6 -0.2
v 3.2 3.7 -0.2
v 3.3 2.3 -0.2
v 3.3 2.4 -0.2
v 3.3 3 -0.2
v 3.3 3.6 -0.2
v 3.3 3.7 -0.2
v 3.3 3.9 -0.2
v 3.4 3.8 -0.2
v 3.4 3.9 -0.2
v 3.4 4 -0.2
v 3.5 3 -0.2
v 3.5 3.6 -0.2
v 3.5 3.8 -0.2
v 3.5 3.9 -0.2
v 3.5 4 -0.2
v 3.5 4.1 -0.2
v 3.6 2.4 -0.2
v 3.6 2.5 -0.2
v 3.6 4 -0.2
v 3.6 4.1 -0.2
v 3.6 4.2 -0.2
v 3.7 2.5 -0.2
v 3.7 2.6 -0.2
v 3.7 3.3 -0.2
v 3.7 3.6 -0.2
v 3.7 4.1 -0.2
v 3.7 4.2 -0.2
v 3.7 4.3 -0.2
v 3.8 2.6 -0.2
v 3.8 2.7 -0.2
v 3.8 4.2 -0.2
v 3.8 4.3 -0.2
v 3.8 4.4 -0.2
v 3.9 2.7 -0.2
v 3.9 3 -0.2
v 3.9 4.3 -0.2
v 3.9 4.4 -0.2
v 3.9 5.1 -0.2
v 4 2.3 -0.2
v 4 3 -0.2
v 4 3.3 -0.2
v 4 4.4 -0.2
v 4 5.2 -0.2
v 0 5.2 -0.3
v 0 5.3 -0.3
v 0.1 5.2 -0.3
v 0.1 5.3 -0.3
v 1.9 4.6 -0.3
v 1.9 5.1 -0.3
v 2.3 4.3 -0.3
v 2.3 4.6 -0.3
v 2.3 5.1 -0.3
v 2.8 4 -0.3
v 2.8 4.3 -0.3
v 3.4 3.8 -0.3
v 3.4 3.9 -0.3
v 3.4 4 -0.3
v 3.5 3.6 -0.3
v 3.5 3.8 -0.3
v 3.5 3.9 -0.3
v 3.5 4 -0.3
v 3.5 4.1 -0.3
v 3.6 4 -0.3
v 3.6 4.1 -0.3
v 3.6 4.2 -0.3
v 3.7 3.3 -0.3
v 3.7 3.6 -0.3
v 3.7 4.1 -0.3
v 3.7 4.2 -0.3
v 3.7 4.3 -0.3
v 3.8 4.2 -0.3
v 3.8 4.3 -0.3
v 3.8 4.4 -0.3
v 3.9 4.3 -0.3
v 3.9 4.4 -0.3
v 3.9 5.1 -0.3
v 3.9 5.2 -0.3
v 3.9 5.3 -0.3
v 4 3.3 -0.3
v 4 4.4 -0.3
v 4 5.2 -0.3
v 4 5.3 -0.3
v 0 5.2 -3.8
v 0 5.3 -3.8
v 0.1 2.3 -3.8
v 0.1 2.4 -3.8
v 0.1 5.2 -3.8
v 0.1 5.3 -3.8
v 3.9 2.3 -3.8
v 3.9 2.4 -3.8
v 3.9 5.2 -3.8
v 3.9 5.3 -3.8
v 4 5.2 -3.8
v 4 5.3 -3.8
v 0 2.3 -3.9
v 0 5.2 -3.9
v 0.1 2.3 -3.9
v 0.1 5.2 -3.9
v 3.9 2.3 -3.9
v 3.9 5.2 -3.9
v 4 2.3 -3.9
v 4 5.2 -3.9
v 0 2.3 -0.2
v 0.4 2.3 -0.2
v 0.7 2.3 -0.2
v 1.2 2.3 -0.2
v 1.7 2.3 -0.2
v 2.8 2.3 -0.2
v 3.3 2.3 -0.2
v 4 2.3 -0.2
v 0 2.3 -0.3
v 0.4 2.3 -0.3
v 0.7 2.3 -0.3
v 1.2 2.3 -0.3
v 1.7 2.3 -0.3
v 2.8 2.3 -0.3
v 3.3 2.3 -0.3
v 4 2.3 -0.3
v 0 2.3 -3.8
v 0.1 2.3 -3.8
v 3.9 2.3 -3.8
v 4 2.3 -3.8
v 0 2.3 -3.9
v 0.1 2.3 -3.9
v 3.9 2.3 -3.9
v 4 2.3 -3.9
v 3.4 3.9 -0.2
v 3.5 3.9 -0.2
v 3.4 3.9 -0.3
v 3.5 3.9 -0.3
v 3.5 4 -0.2
v 3.6 4 -0.2
v 3.5 4 -0.3
v 3.6 4 -0.3
v 3.6 4.1 -0.2
v 3.7 4.1 -0.2
v 3.6 4.1 -0.3
v 3.7 4.1 -0.3
v 3.7 4.2 -0.2
v 3.8 4.2 -0.2
v 3.7 4.2 -0.3
v 3.8 4.2 -0.3
v 3.8 4.3 -0.2
v 3.9 4.3 -0.2
v 3.8 4.3 -0.3
v 3.9 4.3 -0.3
v 3.9 4.4 -0.2
v 4 4.4 -0.2
v 3.9 4.4 -0.3
v 4 4.4 -0.3
v 1.9 5.1 -0.2
v 2.3 5.1 -0.2
v 3.9 5.1 -0.2
v 1.9 5.1 -0.3
v 2.3 5.1 -0.3
v 3.9 5.1 -0.3
v 3.7 3.3 -0.2
v 4 3.3 -0.2
v 3.7 3.3 -0.3
v 4 3.3 -0.3
v 3.5 3.6 -0.2
v 3.7 3.6 -0.2
v 3.5 3.6 -0.3
v 3.7 3.6 -0.3
v 3.4 3.8 -0.2
v 3.5 3.8 -0.2
v 3.4 3.8 -0.3
v 3.5 3.8 -0.3
v 2.8 4 -0.2
v 3.4 4 -0.2
v 3.5 4 -0.2
v 2.8 4 -0.3
v 3.4 4 -0.3
v 3.5 4 -0.3
v 3.5 4.1 -0.2
v 3.6 4.1 -0.2
v 3.5 4.1 -0.3
v 3.6 4.1 -0.3
v 3.6 4.2 -0.2
v 3.7 4.2 -0.2
v 3.6 4.2 -0.3
v 3.7 4.2 -0.3
v 2.3 4.3 -0.2
v 2.8 4.3 -0.2
v 3.7 4.3 -0.2
v 3.8 4.3 -0.2
v 2.3 4.3 -0.3
v 2.8 4.3 -0.3
v 3.7 4.3 -0.3
v 3.8 4.3 -0.3
v 3.8 4.4 -0.2
v 3.9 4.4 -0.2
v 3.8 4.4 -0.3
v 3.9 4.4 -0.3
v 1.9 4.6 -0.2
v 2.3 4.6 -0.2
v 1.9 4.6 -0.3
v 2.3 4.6 -0.3
v 0 5.2 -0.2
v 2.3 5.2 -0.2
v 4 5.2 -0.2
v 0 5.2 -0.3
v 0.1 5.2 -0.3
v 2.3 5.2 -0.3
v 3.9 5.2 -0.3
v 4 5.2 -0.3
v 0 5.2 -3.8
v 0.1 5.2 -3.8
v 3.9 5.2 -3.8
v 4 5.2 -3.8
v 0 5.2 -3.9
v 0.1 5.2 -3.9
v 3.9 5.2 -3.9
v 4 5.2 -3.9
v 0 5.3 -0.3
v 0.1 5.3 -0.3
v 3.9 5.3 -0.3
v 4 5.3 -0.3
v 0 5.3 -3.8
v 0.1 5.3 -3.8
v 3.9 5.3 -3.8
v 4 5.3 -3.8

# faces
f 5/3/1 2/3/1 1/3/1
f 6/5/1 3/5/1 2/5/1
f 6/3/1 2/3/1 5/3/1
f 7/5/1 6/5/1 5/5/1
f 8/5/1 3/5/1 6/5/1
f 8/5/1 6/5/1 7/5/1
f 9/3/1 8/3/1 7/3/1
f 10/5/1 3/5/1 8/5/1
f 10/3/1 8/3/1 9/3/1
f 11/4/1 4/4/1 3/4/1
f 11/5/1 3/5/1 10/5/1
f 12/4/1 4/4/1 11/4/1
f 13/3/1 11/3/1 10/3/1
f 14/3/1 11/3/1 13/3/1
f 17/4/1 16/4/1 15/4/1
f 18/4/1 16/4/1 17/4/1
f 21/4/1 20/4/1 19/4/1
f 22/4/1 20/4/1 21/4/1
f 25/4/1 24/4/1 23/4/1
f 26/4/1 24/4/1 25/4/1
f 29/4/1 28/4/1 27/4/1
f 30/4/1 28/4/1 29/4/1
f 33/4/1 32/4/1 31/4/1
f 36/4/1 35/4/1 34/4/1
f 37/4/1 35/4/1 36/4/1
f 39/4/1 32/4/1 33/4/1
f 40/4/1 32/4/1 39/4/1
f 41/4/1 39/4/1 38/4/1
f 42/4/1 39/4/1 41/4/1
f 43/4/2 44/4/2 45/4/2
f 45/4/2 44/4/2 47/4/2
f 47/4/2 44/4/2 48/4/2
f 46/3/2 47/3/2 49/3/2
f 49/3/2 47/3/2 50/3/2
f 51/2/2 52/2/2 53/2/2
f 53/2/2 52/2/2 54/2/2
f 55/2/2 56/2/2 57/2/2
f 57/2/2 56/2/2 58/2/2
f 59/2/2 60/2/2 61/2/2
f 61/2/2 60/2/2 62/2/2
f 63/4/2 64/4/2 65/4/2
f 65/4/2 64/4/2 66/4/2
f 67/4/2 68/4/2 69/4/2
f 69/4/2 68/4/2 70/4/2
f 71/4/2 72/4/2 73/4/2
f 73/4/2 72/4/2 74/4/2
f 75/4/2 76/4/2 77/4/2
f 77/4/2 76/4/2 78/4/2
f 79/2/2 80/2/2 81/2/2
f 81/2/2 80/2/2 82/2/2
f 83/4/2 84/4/2 85/4/2
f 85/4/2 84/4/2 86/4/2
f 87/4/2 88/4/2 89/4/2
f 89/4/2 88/4/2 90/4/2
f 91/4/2 92/4/2 93/4/2
f 93/4/2 92/4/2 94/4/2
f 95/4/2 96/4/2 99/4/2
f 96/5/2 97/5/2 99/5/2
f 97/4/2 98/4/2 100/4/2
f 99/5/2 97/5/2 100/5/2
f 95/4/2 99/4/2 101/4/2
f 99/2/2 100/2/2 102/2/2
f 101/4/2 99/4/2 102/4/2
f 101/2/2 102/2/2 103/2/2
f 102/2/2 100/2/2 103/2/2
f 100/4/2 98/4/2 104/4/2
f 103/2/2 100/2/2 104/2/2
f 101/2/2 103/2/2 105/2/2
f 103/1/2 104/1/2 106/1/2
f 105/2/2 103/2/2 106/2/2
f 106/1/2 104/1/2 108/1/2
f 107/4/2 108/4/2 109/4/2
f 108/1/2 104/1/2 110/1/2
f 109/4/2 108/4/2 110/4/2
f 104/4/2 98/4/2 111/4/2
f 110/1/2 104/1/2 111/1/2
f 111/4/2 98/4/2 112/4/2
f 110/4/2 111/4/2 113/4/2
f 113/4/2 111/4/2 114/4/2
f 119/3/3 116/3/3 115/3/3
f 120/5/3 117/5/3 116/5/3
f 120/3/3 116/3/3 119/3/3
f 121/5/3 117/5/3 120/5/3
f 122/3/3 118/3/3 117/3/3
f 122/5/3 117/5/3 121/5/3
f 123/3/3 118/3/3 122/3/3
f 124/3/3 119/3/3 115/3/3
f 125/3/3 119/3/3 124/3/3
f 126/5/3 121/5/3 120/5/3
f 126/3/3 119/3/3 125/3/3
f 126/5/3 120/5/3 119/5/3
f 127/5/3 121/5/3 126/5/3
f 128/3/3 122/3/3 121/3/3
f 128/5/3 121/5/3 127/5/3
f 129/5/3 123/5/3 122/5/3
f 129/3/3 122/3/3 128/3/3
f 130/4/3 125/4/3 124/4/3
f 131/5/3 127/5/3 126/5/3
f 131/4/3 125/4/3 130/4/3
f 131/5/3 126/5/3 125/5/3
f 132/5/3 127/5/3 131/5/3
f 133/3/3 128/3/3 127/3/3
f 133/5/3 127/5/3 132/5/3
f 134/5/3 129/5/3 128/5/3
f 134/3/3 128/3/3 133/3/3
f 135/3/3 124/3/3 115/3/3
f 136/4/3 130/4/3 124/4/3
f 136/3/3 124/3/3 135/3/3
f 137/5/3 132/5/3 131/5/3
f 137/4/3 130/4/3 136/4/3
f 137/5/3 131/5/3 130/5/3
f 138/5/3 132/5/3 137/5/3
f 139/3/3 133/3/3 132/3/3
f 139/5/3 132/5/3 138/5/3
f 140/5/3 134/5/3 133/5/3
f 140/3/3 133/3/3 139/3/3
f 141/5/3 138/5/3 137/5/3
f 141/5/3 137/5/3 136/5/3
f 142/5/3 138/5/3 141/5/3
f 143/5/3 138/5/3 142/5/3
f 144/3/3 139/3/3 138/3/3
f 144/5/3 138/5/3 143/5/3
f 145/5/3 140/5/3 139/5/3
f 145/3/3 139/3/3 144/3/3
f 146/5/3 123/5/3 129/5/3
f 146/5/3 140/5/3 145/5/3
f 146/5/3 129/5/3 134/5/3
f 146/5/3 134/5/3 140/5/3
f 147/3/3 118/3/3 123/3/3
f 147/5/3 123/5/3 146/5/3
f 148/3/3 142/3/3 141/3/3
f 148/5/3 143/5/3 142/5/3
f 149/3/3 144/3/3 143/3/3
f 149/5/3 143/5/3 148/5/3
f 150/5/3 145/5/3 144/5/3
f 150/3/3 144/3/3 149/3/3
f 150/5/3 146/5/3 145/5/3
f 151/5/3 146/5/3 150/5/3
f 152/2/3 147/2/3 146/2/3
f 152/5/3 146/5/3 151/5/3
f 153/4/3 136/4/3 135/4/3
f 154/5/3 141/5/3 136/5/3
f 154/4/3 136/4/3 153/4/3
f 155/3/3 149/3/3 148/3/3
f 155/5/3 141/5/3 154/5/3
f 155/3/3 148/3/3 141/3/3
f 156/3/3 149/3/3 155/3/3
f 157/3/3 149/3/3 156/3/3
f 158/3/3 149/3/3 157/3/3
f 159/5/3 151/5/3 150/5/3
f 159/3/3 149/3/3 158/3/3
f 159/5/3 150/5/3 149/5/3
f 160/5/3 151/5/3 159/5/3
f 161/2/3 152/2/3 151/2/3
f 161/5/3 151/5/3 160/5/3
f 162/4/3 158/4/3 157/4/3
f 162/3/3 157/3/3 156/3/3
f 163/5/3 160/5/3 159/5/3
f 163/4/3 158/4/3 162/4/3
f 163/5/3 159/5/3 158/5/3
f 164/5/3 160/5/3 163/5/3
f 165/2/3 161/2/3 160/2/3
f 165/5/3 160/5/3 164/5/3
f 166/5/3 154/5/3 153/5/3
f 166/5/3 155/5/3 154/5/3
f 167/4/3 156/4/3 155/4/3
f 167/5/3 155/5/3 166/5/3
f 168/3/3 162/3/3 156/3/3
f 168/4/3 156/4/3 167/4/3
f 169/5/3 164/5/3 163/5/3
f 169/5/3 163/5/3 162/5/3
f 170/2/3 165/2/3 164/2/3
f 170/5/3 164/5/3 169/5/3
f 171/5/3 166/5/3 153/5/3
f 172/2/3 167/2/3 166/2/3
f 172/5/3 166/5/3 171/5/3
f 172/2/3 168/2/3 167/2/3
f 173/5/3 169/5/3 162/5/3
f 174/2/3 170/2/3 169/2/3
f 174/5/3 169/5/3 173/5/3
f 175/5/3 171/5/3 153/5/3
f 176/2/3 172/2/3 171/2/3
f 176/5/3 171/5/3 175/5/3
f 177/5/3 173/5/3 162/5/3
f 178/2/3 174/2/3 173/2/3
f 178/5/3 173/5/3 177/5/3
f 179/5/3 175/5/3 153/5/3
f 180/5/3 175/5/3 179/5/3
f 181/2/3 168/2/3 172/2/3
f 181/2/3 172/2/3 176/2/3
f 181/2/3 176/2/3 175/2/3
f 182/3/3 162/3/3 168/3/3
f 182/2/3 168/2/3 181/2/3
f 183/5/3 177/5/3 162/5/3
f 183/3/3 162/3/3 182/3/3
f 184/2/3 178/2/3 177/2/3
f 184/5/3 177/5/3 183/5/3
f 185/5/3 175/5/3 180/5/3
f 185/3/3 180/3/3 179/3/3
f 186/2/3 181/2/3 175/2/3
f 186/5/3 175/5/3 185/5/3
f 187/3/3 185/3/3 179/3/3
f 188/2/3 186/2/3 185/2/3
f 188/3/3 185/3/3 187/3/3
f 189/2/3 181/2/3 186/2/3
f 189/2/3 186/2/3 188/2/3
f 190/2/3 181/2/3 189/2/3
f 191/2/3 161/2/3 165/2/3
f 191/2/3 170/2/3 174/2/3
f 191/2/3 152/2/3 161/2/3
f 191/2/3 178/2/3 184/2/3
f 191/2/3 165/2/3 170/2/3
f 191/2/3 184/2/3 183/2/3
f 191/2/3 174/2/3 178/2/3
f 192/3/3 118/3/3 147/3/3
f 192/2/3 152/2/3 191/2/3
f 192/2/3 147/2/3 152/2/3
f 193/3/3 190/3/3 189/3/3
f 193/2/3 189/2/3 188/2/3
f 194/2/3 181/2/3 190/2/3
f 194/3/3 190/3/3 193/3/3
f 195/2/3 191/2/3 183/2/3
f 196/2/3 191/2/3 195/2/3
f 197/3/3 118/3/3 192/3/3
f 198/3/3 118/3/3 197/3/3
f 199/2/3 193/2/3 188/2/3
f 199/4/3 194/4/3 193/4/3
f 200/2/3 181/2/3 194/2/3
f 200/4/3 194/4/3 199/4/3
f 201/4/3 188/4/3 187/4/3
f 202/2/3 199/2/3 188/2/3
f 202/4/3 188/4/3 201/4/3
f 202/2/3 200/2/3 199/2/3
f 203/4/3 182/4/3 181/4/3
f 203/2/3 200/2/3 202/2/3
f 203/2/3 181/2/3 200/2/3
f 204/3/3 183/3/3 182/3/3
f 204/4/3 182/4/3 203/4/3
f 205/2/3 195/2/3 183/2/3
f 205/3/3 183/3/3 204/3/3
f 206/2/3 195/2/3 205/2/3
f 207/2/3 195/2/3 206/2/3
f 208/2/3 202/2/3 201/2/3
f 208/2/3 204/2/3 203/2/3
f 208/2/3 203/2/3 202/2/3
f 209/4/3 205/4/3 204/4/3
f 209/2/3 204/2/3 208/2/3
f 210/2/3 206/2/3 205/2/3
f 210/4/3 205/4/3 209/4/3
f 211/3/3 209/3/3 208/3/3
f 211/2/3 206/2/3 210/2/3
f 211/3/3 210/3/3 209/3/3
f 212/2/3 206/2/3 211/2/3
f 213/2/3 208/2/3 201/2/3
f 214/2/3 208/2/3 213/2/3
f 215/3/3 211/3/3 208/3/3
f 215/2/3 208/2/3 214/2/3
f 216/4/3 212/4/3 211/4/3
f 216/3/3 211/3/3 215/3/3
f 217/2/3 206/2/3 212/2/3
f 217/4/3 212/4/3 216/4/3
f 218/2/3 206/2/3 217/2/3
f 219/4/3 216/4/3 215/4/3
f 219/4/3 217/4/3 216/4/3
f 219/4/3 218/4/3 217/4/3
f 220/2/3 206/2/3 218/2/3
f 220/4/3 218/4/3 219/4/3
f 221/2/3 206/2/3 220/2/3
f 222/4/3 219/4/3 215/4/3
f 222/2/3 215/2/3 214/2/3
f 223/4/3 219/4/3 222/4/3
f 224/4/3 219/4/3 223/4/3
f 225/4/3 221/4/3 220/4/3
f 226/4/3 221/4/3 225/4/3
f 228/4/3 214/4/3 213/4/3
f 228/2/3 223/2/3 222/2/3
f 228/2/3 222/2/3 214/2/3
f 229/2/3 223/2/3 228/2/3
f 230/4/3 227/4/3 226/4/3
f 231/4/3 227/4/3 230/4/3
f 233/2/3 223/2/3 229/2/3
f 233/4/3 229/4/3 228/4/3
f 234/2/3 223/2/3 233/2/3
f 235/2/3 223/2/3 234/2/3
f 236/2/3 223/2/3 235/2/3
f 237/4/3 232/4/3 231/4/3
f 238/4/3 232/4/3 237/4/3
f 240/4/3 234/4/3 233/4/3
f 240/2/3 235/2/3 234/2/3
f 241/2/3 235/2/3 240/2/3
f 242/4/3 239/4/3 238/4/3
f 243/4/3 239/4/3 242/4/3
f 245/2/3 235/2/3 241/2/3
f 245/4/3 241/4/3 240/4/3
f 246/2/3 235/2/3 245/2/3
f 247/4/3 244/4/3 243/4/3
f 248/4/3 244/4/3 247/4/3
f 249/4/3 198/4/3 197/4/3
f 250/4/3 228/4/3 213/4/3
f 250/4/3 233/4/3 228/4/3
f 250/4/3 240/4/3 233/4/3
f 250/4/3 245/4/3 240/4/3
f 250/4/3 246/4/3 245/4/3
f 251/2/3 235/2/3 246/2/3
f 251/4/3 246/4/3 250/4/3
f 252/2/3 235/2/3 251/2/3
f 253/4/3 249/4/3 248/4/3
f 254/4/3 198/4/3 249/4/3
f 254/4/3 249/4/3 253/4/3
f 257/3/3 256/3/3 255/3/3
f 258/3/3 256/3/3 257/3/3
f 262/1/3 260/1/3 259/1/3
f 263/1/3 260/1/3 262/1/3
f 265/1/3 262/1/3 261/1/3
f 265/1/3 263/1/3 262/1/3
f 268/1/3 265/1/3 264/1/3
f 270/1/3 267/1/3 266/1/3
f 271/1/3 267/1/3 270/1/3
f 272/1/3 265/1/3 268/1/3
f 273/1/3 265/1/3 272/1/3
f 274/1/3 271/1/3 270/1/3
f 274/1/3 270/1/3 269/1/3
f 274/1/3 272/1/3 271/1/3
f 275/1/3 265/1/3 273/1/3
f 276/1/3 265/1/3 275/1/3
f 278/1/3 274/1/3 269/1/3
f 278/1/3 275/1/3 274/1/3
f 279/1/3 275/1/3 278/1/3
f 280/1/3 265/1/3 276/1/3
f 281/1/3 263/1/3 265/1/3
f 281/1/3 265/1/3 280/1/3
f 282/1/3 280/1/3 279/1/3
f 282/1/3 279/1/3 278/1/3
f 282/1/3 278/1/3 277/1/3
f 283/1/3 263/1/3 281/1/3
f 284/1/3 263/1/3 283/1/3
f 285/1/3 283/1/3 282/1/3
f 286/1/3 263/1/3 284/1/3
f 287/1/3 263/1/3 286/1/3
f 290/1/3 282/1/3 277/1/3
f 290/1/3 286/1/3 285/1/3
f 290/1/3 285/1/3 282/1/3
f 291/1/3 286/1/3 290/1/3
f 292/4/3 289/4/3 288/4/3
f 293/4/3 289/4/3 292/4/3
f 294/3/4 295/3/4 298/3/4
f 298/3/4 295/3/4 299/3/4
f 296/5/4 297/5/4 300/5/4
f 297/1/4 298/1/4 301/1/4
f 300/5/4 297/5/4 301/5/4
f 301/1/4 298/1/4 302/1/4
f 302/4/4 303/4/4 304/4/4
f 304/4/4 303/4/4 305/4/4
f 306/4/4 307/4/4 308/4/4
f 308/4/4 307/4/4 309/4/4
f 310/4/4 311/4/4 312/4/4
f 312/4/4 311/4/4 313/4/4
f 322/3/5 315/3/5 314/3/5
f 323/4/5 316/4/5 315/4/5
f 323/3/5 315/3/5 322/3/5
f 324/5/5 317/5/5 316/5/5
f 324/4/5 316/4/5 323/4/5
f 325/3/5 318/3/5 317/3/5
f 325/5/5 317/5/5 324/5/5
f 326/4/5 319/4/5 318/4/5
f 326/3/5 318/3/5 325/3/5
f 327/2/5 320/2/5 319/2/5
f 327/4/5 319/4/5 326/4/5
f 328/4/5 321/4/5 320/4/5
f 328/2/5 320/2/5 327/2/5
f 329/4/5 321/4/5 328/4/5
f 330/5/5 327/5/5 326/5/5
f 330/5/5 323/5/5 322/5/5
f 330/5/5 329/5/5 328/5/5
f 330/5/5 328/5/5 327/5/5
f 330/5/5 326/5/5 325/5/5
f 330/5/5 325/5/5 324/5/5
f 330/5/5 324/5/5 323/5/5
f 331/5/5 329/5/5 330/5/5
f 332/5/5 329/5/5 331/5/5
f 333/5/5 329/5/5 332/5/5
f 334/4/5 331/4/5 330/4/5
f 335/4/5 331/4/5 334/4/5
f 336/4/5 333/4/5 332/4/5
f 337/4/5 333/4/5 336/4/5
f 340/4/5 339/4/5 338/4/5
f 341/4/5 339/4/5 340/4/5
f 344/4/5 343/4/5 342/4/5
f 345/4/5 343/4/5 344/4/5
f 348/4/5 347/4/5 346/4/5
f 349/4/5 347/4/5 348/4/5
f 352/4/5 351/4/5 350/4/5
f 353/4/5 351/4/5 352/4/5
f 356/4/5 355/4/5 354/4/5
f 357/4/5 355/4/5 356/4/5
f 360/4/5 359/4/5 358/4/5
f 361/4/5 359/4/5 360/4/5
f 365/3/5 363/3/5 362/3/5
f 366/4/5 364/4/5 363/4/5
f 366/3/5 363/3/5 365/3/5
f 367/4/5 364/4/5 366/4/5
f 368/2/6 369/2/6 370/2/6
f 370/2/6 369/2/6 371/2/6
f 372/2/6 373/2/6 374/2/6
f 374/2/6 373/2/6 375/2/6
f 376/4/6 377/4/6 378/4/6
f 378/4/6 377/4/6 379/4/6
f 380/2/6 381/2/6 383/2/6
f 381/4/6 382/4/6 384/4/6
f 383/2/6 381/2/6 384/2/6
f 384/4/6 382/4/6 385/4/6
f 386/4/6 387/4/6 388/4/6
f 388/4/6 387/4/6 389/4/6
f 390/4/6 391/4/6 392/4/6
f 392/4/6 391/4/6 393/4/6
f 394/2/6 395/2/6 398/2/6
f 398/2/6 395/2/6 399/2/6
f 396/4/6 397/4/6 400/4/6
f 400/4/6 397/4/6 401/4/6
f 402/4/6 403/4/6 404/4/6
f 404/4/6 403/4/6 405/4/6
f 406/2/6 407/2/6 408/2/6
f 408/2/6 407/2/6 409/2/6
f 410/3/6 411/3/6 413/3/6
f 413/3/6 411/3/6 414/3/6
f 411/4/6 412/4/6 415/4/6
f 414/3/6 411/3/6 415/3/6
f 415/4/6 412/4/6 416/4/6
f 416/4/6 412/4/6 417/4/6
f 414/1/6 415/1/6 419/1/6
f 415/1/6 416/1/6 419/1/6
f 419/1/6 416/1/6 420/1/6
f 418/4/6 419/4/6 422/4/6
f 422/4/6 419/4/6 423/4/6
f 420/4/6 421/4/6 424/4/6
f 424/4/6 421/4/6 425/4/6
f 426/3/6 427/3/6 430/3/6
f 430/3/6 427/3/6 431/3/6
f 428/4/6 429/4/6 432/4/6
f 432/4/6 429/4/6 433/4/6
