# Blender v2.80 (sub 60) OBJ File: 'hand.blend'
# www.blender.org
mtllib hand2.mtl
o Cube_Cube.001
v -0.916830 -0.334568 -1.850718
v -0.956049 1.003387 -0.856921
v -1.000000 -1.000000 0.391554
v -1.000000 1.000000 0.391554
v -0.062739 -2.059476 -2.948270
v 1.000000 1.000000 -0.979516
v 1.000000 -1.000000 0.391554
v 1.000000 1.000000 0.391554
v -0.901275 0.245708 -3.236800
v -0.867012 1.003387 -2.357007
v -0.062739 -1.260239 -4.220829
v 1.000000 1.000000 -2.482242
v -1.104692 -1.000000 1.789736
v -1.104692 1.000000 1.789736
v 1.000000 -1.000000 1.623046
v 1.000000 1.000000 1.623046
v -0.944767 -1.000000 2.878952
v -0.944767 1.000000 2.878952
v 1.000000 -1.000000 2.723940
v 1.000000 1.000000 2.723940
v -3.957309 0.113417 -1.247006
v -4.546793 1.023824 -1.078794
v -4.183597 0.113417 -2.040015
v -4.773082 1.023824 -1.871803
v -5.655154 -0.388472 -1.332471
v -6.160254 0.048510 -1.213339
v -5.744031 -0.354671 -1.833275
v -6.249131 0.082311 -1.714143
v -1.842238 -1.416609 -3.326533
v -2.377660 -2.487942 -3.906468
v -2.003716 -1.048267 -4.183152
v -2.472696 -1.978448 -4.697910
v -4.065229 -1.361330 -3.168040
v -4.293968 -1.609066 -3.625741
v -4.134215 -1.029472 -3.388402
v -4.334569 -1.241944 -3.789816
v -5.125748 -1.241067 -2.932499
v -5.211897 -1.334370 -3.104879
v -5.151730 -1.116082 -3.015492
v -5.227188 -1.196104 -3.166674
v -6.794335 -2.014184 -1.355459
v -6.923581 -1.952716 -1.329931
v -6.814620 -2.012269 -1.462773
v -6.943866 -1.950801 -1.437245
v -4.273423 0.491979 0.384714
v -4.144137 0.277905 -0.786649
v -4.648979 1.607360 -0.348539
v -4.672580 1.596717 0.384714
v -6.634507 0.520571 0.169680
v -6.499373 0.497168 -0.472688
v -7.231452 0.765951 -0.232432
v -7.235528 0.752351 0.169680
v -8.040823 -0.349236 -0.006087
v -7.996652 -0.356886 -0.216060
v -8.235950 -0.269028 -0.137527
v -8.237282 -0.273473 -0.006087
v 3.488520 0.639934 0.215410
v 3.488520 -0.714691 0.215410
v 2.768713 -1.569242 -2.396671
v 3.488520 0.639934 -0.713233
v 3.488520 0.639934 -1.731048
v 2.768713 -0.644709 -2.822330
v 3.488520 0.639934 1.049515
v 3.488520 -0.714691 1.049515
v 3.488520 0.639934 1.795164
v 3.488520 -0.714691 1.795164
v 4.632630 0.462738 0.128727
v 4.632630 -0.574285 0.128727
v 4.081588 -1.228480 -1.870932
v 4.632630 0.462738 -0.582189
v 4.632630 0.462738 -1.361369
v 4.081588 -0.520710 -2.196792
v 4.632630 0.462738 0.767269
v 4.632630 -0.574285 0.767269
v 4.632630 0.462738 1.338095
v 4.632630 -0.574285 1.338095
v -4.180730 1.089260 0.670585
v -3.848432 0.047284 0.670585
v -4.180730 1.089260 1.344015
v -3.848432 0.047284 1.344015
v -5.831088 0.220411 0.806385
v -5.306362 -0.167580 0.806385
v -5.831088 0.220411 1.208215
v -5.306362 -0.167580 1.208215
v -6.393957 -0.816782 0.907409
v -6.133074 -1.009684 0.907409
v -6.393957 -0.816782 1.107191
v -6.133074 -1.009684 1.107191
v -3.075452 0.561179 2.323231
v -3.075452 -0.561179 2.323231
v -2.985706 0.561179 2.934476
v -2.985706 -0.561179 2.934476
v -4.433049 0.359801 2.699694
v -4.244048 -0.086634 2.671943
v -4.394221 0.359801 2.964149
v -4.205219 -0.086634 2.936399
v -4.997795 -0.044416 2.861917
v -4.919755 -0.228751 2.850458
v -4.981762 -0.044416 2.971111
v -4.903722 -0.228751 2.959653
v 5.874373 0.425021 0.110275
v 5.874373 -0.544399 0.110275
v 5.359253 -1.155947 -1.759026
v 5.874373 0.425021 -0.554296
v 5.874373 0.425021 -1.282681
v 5.359253 -0.494316 -2.063643
v 5.874373 0.425021 0.707192
v 5.874373 -0.544399 0.707192
v 5.874373 0.425021 1.240805
v 5.874373 -0.544399 1.240805
vt 0.875000 0.750000
vt 0.875000 0.750000
vt 0.875000 0.500000
vt 0.875000 0.500000
vt 0.625000 0.500000
vt 0.625000 0.500000
vt 0.625000 0.500000
vt 0.625000 0.500000
vt 0.625000 0.750000
vt 0.625000 0.750000
vt 0.625000 0.750000
vt 0.875000 0.750000
vt 0.125000 0.500000
vt 0.125000 0.750000
vt 0.375000 0.750000
vt 0.375000 0.500000
vt 0.375000 0.750000
vt 0.375000 1.000000
vt 0.625000 1.000000
vt 0.375000 0.750000
vt 0.375000 0.750000
vt 0.125000 0.750000
vt 0.125000 0.750000
vt 0.125000 0.750000
vt 0.125000 0.750000
vt 0.125000 0.750000
vt 0.875000 0.500000
vt 0.875000 0.500000
vt 0.625000 0.500000
vt 0.375000 0.500000
vt 0.125000 0.500000
vt 0.625000 0.250000
vt 0.625000 0.250000
vt 0.375000 0.250000
vt 0.375000 0.250000
vt 0.375000 0.250000
vt 0.375000 0.500000
vt 0.625000 0.250000
vt 0.875000 0.500000
vt 0.875000 0.500000
vt 0.375000 0.500000
vt 0.375000 0.500000
vt 0.125000 0.500000
vt 0.125000 0.750000
vt 0.125000 0.750000
vt 0.875000 0.750000
vt 0.875000 0.750000
vt 0.625000 0.000000
vt 0.625000 0.000000
vt 0.375000 0.000000
vt 0.375000 0.000000
vt 0.375000 1.000000
vt 0.625000 1.000000
vt 0.875000 0.750000
vt 0.875000 0.750000
vt 0.875000 0.750000
vt 0.875000 0.750000
vt 0.375000 1.000000
vt 0.625000 1.000000
vt 0.625000 0.000000
vt 0.375000 0.000000
vt 0.125000 0.750000
vt 0.375000 0.750000
vt 0.375000 0.750000
vt 0.375000 0.750000
vt 0.375000 1.000000
vt 0.125000 0.750000
vt 0.125000 0.750000
vt 0.125000 0.750000
vt 0.375000 0.750000
vt 0.375000 1.000000
vt 0.375000 0.750000
vt 0.375000 0.750000
vt 0.375000 1.000000
vt 0.625000 0.000000
vt 0.625000 0.000000
vt 0.375000 0.000000
vt 0.375000 0.000000
vt 0.125000 0.750000
vt 0.125000 0.750000
vt 0.375000 1.000000
vt 0.625000 1.000000
vt 0.875000 0.750000
vt 0.875000 0.500000
vt 0.125000 0.500000
vt 0.125000 0.750000
vt 0.625000 0.250000
vt 0.625000 0.250000
vt 0.375000 0.250000
vt 0.375000 0.250000
vt 0.375000 0.000000
vt 0.625000 0.000000
vt 0.625000 0.250000
vt 0.625000 0.250000
vt 0.375000 0.250000
vt 0.375000 0.250000
vt 0.125000 0.500000
vt 0.125000 0.750000
vt 0.375000 0.000000
vt 0.625000 0.000000
vt 0.375000 0.000000
vt 0.625000 0.000000
vt 0.875000 0.750000
vt 0.875000 0.500000
vt 0.125000 0.500000
vt 0.125000 0.750000
vt 0.625000 0.500000
vt 0.625000 0.500000
vt 0.625000 0.750000
vt 0.375000 0.500000
vt 0.375000 0.500000
vt 0.625000 0.750000
vt 0.625000 0.750000
vt 0.625000 0.500000
vt 0.375000 0.500000
vt 0.375000 0.500000
vt 0.625000 0.500000
vt 0.625000 0.500000
vt 0.375000 0.750000
vt 0.375000 0.750000
vt 0.375000 0.750000
vt 0.375000 0.750000
vt 0.625000 0.500000
vt 0.625000 0.500000
vt 0.625000 0.750000
vt 0.375000 0.500000
vt 0.125000 0.500000
vt 0.125000 0.500000
vt 0.125000 0.500000
vt 0.125000 0.500000
vt 0.875000 0.500000
vt 0.875000 0.500000
vt 0.375000 0.250000
vt 0.625000 0.250000
vt 0.375000 0.250000
vt 0.375000 0.250000
vt 0.625000 0.250000
vt 0.625000 0.250000
vt 0.875000 0.500000
vt 0.875000 0.500000
vt 0.625000 0.250000
vt 0.375000 0.250000
vt 0.375000 0.250000
vt 0.625000 0.250000
vt 0.875000 0.500000
vt 0.875000 0.500000
vt 0.125000 0.500000
vt 0.125000 0.500000
vt 0.875000 0.500000
vt 0.875000 0.500000
vt 0.375000 0.250000
vt 0.625000 0.250000
vt 0.125000 0.500000
vt 0.125000 0.500000
vt 0.625000 0.250000
vt 0.375000 0.250000
vt 0.125000 0.500000
vt 0.125000 0.500000
vt 0.125000 0.500000
vt 0.125000 0.500000
vt 0.375000 0.250000
vt 0.625000 0.250000
vt 0.625000 0.250000
vt 0.375000 0.250000
vt 0.375000 0.250000
vt 0.375000 0.250000
vt 0.625000 0.250000
vt 0.625000 0.250000
vt 0.875000 0.500000
vt 0.875000 0.500000
vt 0.375000 0.500000
vt 0.375000 0.500000
vt 0.625000 0.750000
vn 0.1617 0.9868 0.0125
vn 0.1432 0.9897 0.0000
vn 0.0018 1.0000 0.0001
vn -0.4707 -0.8705 0.1440
vn 0.0009 1.0000 0.0013
vn 0.0469 0.6448 -0.7629
vn 0.3571 -0.6555 -0.6654
vn -0.1178 -0.9624 -0.2449
vn -0.8479 0.4663 0.2524
vn 0.0000 1.0000 0.0000
vn -0.0000 -1.0000 0.0000
vn -0.1546 -0.0169 0.9878
vn 0.0795 0.0000 0.9968
vn -0.2093 0.9774 0.0307
vn 0.1139 -0.9935 0.0000
vn 0.2809 -0.9552 -0.0934
vn 0.0054 1.0000 -0.0003
vn 0.0191 -0.4548 0.8904
vn -0.2081 0.4698 -0.8579
vn -0.9218 0.3405 0.1855
vn -0.1565 0.0827 -0.9842
vn -0.5205 0.8408 0.1488
vn 0.0207 -0.1924 0.9811
vn -0.0505 -0.5993 0.7990
vn 0.3465 -0.7849 -0.5136
vn 0.0412 0.5281 -0.8482
vn -0.3513 -0.5108 0.7847
vn 0.2392 0.5711 0.7852
vn 0.1285 0.8438 0.5211
vn -0.1768 0.6767 -0.7147
vn -0.4684 -0.6832 -0.5603
vn -0.9086 0.0828 0.4095
vn -0.2132 0.9035 -0.3718
vn -0.5400 -0.3925 -0.7446
vn 0.0054 -0.8806 0.4739
vn -0.4185 -0.9060 0.0629
vn 0.1379 -0.1102 0.9843
vn 0.8075 -0.5623 -0.1780
vn -0.2567 -0.0465 -0.9654
vn -0.3115 0.9501 0.0127
vn -0.3259 -0.9344 -0.1438
vn -0.0020 -0.0003 1.0000
vn -0.1219 0.4500 -0.8847
vn -0.0476 -0.1234 0.9912
vn -0.0495 -0.9912 0.1226
vn -0.0773 -0.0579 0.9953
vn -0.1209 0.3071 -0.9440
vn -0.3574 -0.9331 -0.0389
vn -0.2545 0.1595 -0.9538
vn -0.7168 0.6971 0.0163
vn 0.5085 -0.8500 0.1379
vn 0.1531 0.9882 0.0000
vn 0.1218 -0.9926 0.0000
vn 0.3048 0.4959 -0.8132
vn 0.1201 -0.9550 0.2712
vn 0.3497 0.0000 0.9369
vn 0.0781 0.0000 0.9969
vn 0.1028 -0.4160 -0.9035
vn 0.0304 0.9995 0.0000
vn 0.4271 -0.3782 -0.8214
vn 0.3710 0.0000 0.9286
vn 0.3357 0.4935 -0.8024
vn 0.1376 -0.9520 0.2735
vn 0.1458 -0.9893 0.0000
vn 0.0285 0.9996 0.0014
vn -0.0941 -0.0103 -0.9955
vn -0.3502 -0.9365 -0.0177
vn -0.0512 -0.0693 -0.9963
vn -0.0720 -0.0432 -0.9965
vn -0.4658 0.8849 0.0000
vn -0.0720 -0.0432 0.9965
vn -0.5945 -0.8041 0.0000
vn -0.8789 0.4770 0.0000
vn -0.0512 -0.0693 0.9963
vn 0.7136 -0.7006 0.0000
vn -0.1411 0.9898 0.0207
vn -0.2613 0.0000 -0.9653
vn -0.2093 -0.9774 0.0307
vn 0.0272 0.0000 0.9996
vn 0.1984 -0.9797 -0.0291
vn -0.2775 -0.0164 -0.9606
vn -0.3621 -0.9306 0.0532
vn 0.0103 -0.0164 0.9998
vn -0.9096 -0.3934 0.1336
vn 0.0422 -0.0442 0.9981
vn -0.5642 0.8215 0.0828
vn -0.2465 -0.0442 -0.9681
vn 1.0000 0.0000 0.0000
vn 0.9784 -0.1170 -0.1707
vn 0.9512 -0.2598 -0.1664
vn 0.0683 0.6234 -0.7789
vn 0.0274 -0.9523 0.3040
vn 0.0241 -0.9997 0.0000
usemtl None
s off
f 2/1/1 47/2/1 48/3/1 4/4/1
f 16/5/2 63/6/2 57/7/2 8/8/2
f 8/8/2 57/7/2 60/9/2 6/10/2
f 6/10/3 12/11/3 10/12/3 2/1/3
f 3/13/4 1/14/4 5/15/4 7/16/4
f 8/8/5 6/10/5 2/1/5 4/4/5
f 11/17/6 9/18/6 10/19/6 12/11/6
f 11/17/7 62/20/7 59/21/7 5/15/7
f 1/14/8 21/22/8 23/23/8 9/24/8
f 9/24/9 31/25/9 29/26/9 1/14/9
f 14/27/10 18/28/10 20/29/10 16/5/10
f 7/16/11 15/30/11 13/31/11 3/13/11
f 4/4/10 14/27/10 16/5/10 8/8/10
f 14/32/12 79/33/12 80/34/12 13/35/12
f 17/36/13 19/37/13 20/29/13 18/38/13
f 14/27/14 89/39/14 91/40/14 18/28/14
f 15/30/15 64/41/15 66/42/15 19/37/15
f 15/30/11 19/37/11 17/43/11 13/31/11
f 21/22/16 25/44/16 27/45/16 23/23/16
f 10/12/17 24/46/17 22/47/17 2/1/17
f 2/48/18 22/49/18 21/50/18 1/51/18
f 9/18/19 23/52/19 24/53/19 10/19/19
f 28/54/20 44/55/20 42/56/20 26/57/20
f 23/52/21 27/58/21 28/59/21 24/53/21
f 24/46/22 28/54/22 26/57/22 22/47/22
f 22/49/23 26/60/23 25/61/23 21/50/23
f 29/26/24 33/62/24 34/63/24 30/64/24
f 5/15/25 30/64/25 32/65/25 11/17/25
f 11/17/26 32/65/26 31/66/26 9/18/26
f 1/14/27 29/26/27 30/64/27 5/15/27
f 35/67/28 39/68/28 37/69/28 33/62/28
f 31/25/29 35/67/29 33/62/29 29/26/29
f 32/65/30 36/70/30 35/71/30 31/66/30
f 30/64/31 34/63/31 36/70/31 32/65/31
f 37/69/32 39/68/32 40/72/32 38/73/32
f 36/70/33 40/72/33 39/74/33 35/71/33
f 34/63/34 38/73/34 40/72/34 36/70/34
f 33/62/35 37/69/35 38/73/35 34/63/35
f 42/75/36 44/76/36 43/77/36 41/78/36
f 26/60/37 42/75/37 41/78/37 25/61/37
f 25/44/38 41/79/38 43/80/38 27/45/38
f 27/58/39 43/81/39 44/82/39 28/59/39
f 47/2/40 51/83/40 52/84/40 48/3/40
f 3/13/41 45/85/41 46/86/41 1/14/41
f 4/87/42 48/88/42 45/89/42 3/90/42
f 1/51/43 46/91/43 47/92/43 2/48/43
f 52/93/44 56/94/44 53/95/44 49/96/44
f 45/85/45 49/97/45 50/98/45 46/86/45
f 48/88/46 52/93/46 49/96/46 45/89/46
f 46/91/47 50/99/47 51/100/47 47/92/47
f 54/101/48 53/95/48 56/94/48 55/102/48
f 50/99/49 54/101/49 55/102/49 51/100/49
f 51/83/50 55/103/50 56/104/50 52/84/50
f 49/97/51 53/105/51 54/106/51 50/98/51
f 63/6/52 73/107/52 67/108/52 57/7/52
f 57/7/52 67/108/52 70/109/52 60/9/52
f 64/41/53 74/110/53 76/111/53 66/42/53
f 60/9/52 70/109/52 71/112/52 61/113/52
f 20/29/2 65/114/2 63/6/2 16/5/2
f 12/11/54 61/113/54 62/20/54 11/17/54
f 6/10/2 60/9/2 61/113/2 12/11/2
f 5/15/55 59/21/55 58/115/55 7/16/55
f 7/16/15 58/115/15 64/41/15 15/30/15
f 19/37/56 66/42/56 65/114/56 20/29/56
f 76/111/57 110/116/57 109/117/57 75/118/57
f 72/119/58 106/120/58 103/121/58 69/122/58
f 73/107/59 107/123/59 101/124/59 67/108/59
f 67/108/59 101/124/59 104/125/59 70/109/59
f 62/20/60 72/119/60 69/122/60 59/21/60
f 66/42/61 76/111/61 75/118/61 65/114/61
f 61/113/62 71/112/62 72/119/62 62/20/62
f 65/114/52 75/118/52 73/107/52 63/6/52
f 59/21/63 69/122/63 68/126/63 58/115/63
f 58/115/53 68/126/53 74/110/53 64/41/53
f 80/127/64 84/128/64 82/129/64 78/130/64
f 4/4/65 77/131/65 79/132/65 14/27/65
f 3/90/66 78/133/66 77/134/66 4/87/66
f 13/31/67 80/127/67 78/130/67 3/13/67
f 82/135/68 86/136/68 85/137/68 81/138/68
f 78/133/69 82/135/69 81/138/69 77/134/69
f 77/131/70 81/139/70 83/140/70 79/132/70
f 79/33/71 83/141/71 84/142/71 80/34/71
f 86/136/72 88/143/72 87/144/72 85/137/72
f 81/139/73 85/145/73 87/146/73 83/140/73
f 83/141/74 87/144/74 88/143/74 84/142/74
f 84/128/75 88/147/75 86/148/75 82/129/75
f 89/39/76 93/149/76 95/150/76 91/40/76
f 13/35/77 90/151/77 89/152/77 14/32/77
f 17/43/78 92/153/78 90/154/78 13/31/78
f 18/38/79 91/155/79 92/156/79 17/36/79
f 96/157/80 100/158/80 98/159/80 94/160/80
f 90/151/81 94/161/81 93/162/81 89/152/81
f 92/153/82 96/157/82 94/160/82 90/154/82
f 91/155/83 95/163/83 96/164/83 92/156/83
f 98/165/84 100/166/84 99/167/84 97/168/84
f 95/163/85 99/167/85 100/166/85 96/164/85
f 93/149/86 97/169/86 99/170/86 95/150/86
f 94/161/87 98/165/87 97/168/87 93/162/87
f 101/124/88 107/123/88 108/171/88 102/172/88
f 102/172/89 103/121/89 104/125/89 101/124/89
f 103/121/90 106/120/90 105/173/90 104/125/90
f 107/123/88 109/117/88 110/116/88 108/171/88
f 71/112/91 105/173/91 106/120/91 72/119/91
f 75/118/59 109/117/59 107/123/59 73/107/59
f 69/122/92 103/121/92 102/172/92 68/126/92
f 68/126/93 102/172/93 108/171/93 74/110/93
f 70/109/59 104/125/59 105/173/59 71/112/59
f 74/110/93 108/171/93 110/116/93 76/111/93
