# Blender v2.80 (sub 75) OBJ File: ''
# www.blender.org
mtllib table.mtl
o Cube
v 1.000000 1.000000 4.403749
v 1.000000 -1.000000 4.403749
v 1.000000 1.000000 6.403749
v 1.000000 -1.000000 6.403749
v -1.000000 1.000000 4.403749
v -1.000000 -1.000000 4.403749
v -1.000000 1.000000 6.403749
v -1.000000 -1.000000 6.403749
v 1.000000 13.460619 6.403749
v -1.000000 13.460619 6.403749
v 1.000000 13.460619 4.403749
v -1.000000 13.460619 4.403749
v 1.000000 11.684051 4.403749
v 1.000000 11.684051 6.403749
v -1.000000 11.684051 4.403749
v -1.000000 11.684051 6.403749
v -1.000000 13.460619 -12.978457
v 1.000000 13.460619 -12.978457
v 1.000000 11.684051 -12.978457
v -1.000000 11.684051 -12.978457
v -1.000000 13.460619 -10.908755
v -1.000000 11.684051 -10.908755
v 1.000000 11.684051 -10.908755
v 1.000000 13.460619 -10.908755
v -1.000000 -0.609292 -12.978457
v 1.000000 -0.609292 -12.978457
v 1.000000 -0.609292 -10.908755
v -1.000000 -0.609292 -10.908755
v -1.000000 -0.960389 -12.978457
v 1.000000 -0.960389 -12.978457
v 1.000000 -0.960389 -10.908755
v -1.000000 -0.960389 -10.908755
v 81.018600 13.460619 4.403749
v 81.018600 13.460619 6.403749
v 81.018600 11.684051 4.403749
v 81.018600 11.684051 6.403749
v 81.018600 11.684051 -12.978457
v 81.018600 13.460619 -12.978457
v 81.018600 11.684051 -10.908755
v 81.018600 13.460619 -10.908755
v 166.550781 13.460619 4.403749
v 166.550781 13.460619 6.403749
v 166.550781 11.684051 4.403749
v 166.550781 11.684051 6.403749
v 166.550781 11.684051 -12.978457
v 166.550781 13.460619 -12.978457
v 166.550781 11.684051 -10.908755
v 166.550781 13.460619 -10.908755
v 123.784691 13.460619 6.403749
v 123.784691 11.684051 6.403749
v 123.784691 13.460619 4.403749
v 123.784691 11.684051 -10.908755
v 123.784691 11.684051 4.403749
v 123.784691 11.684051 -12.978457
v 123.784691 13.460619 -10.908755
v 123.784691 13.460619 -12.978457
v 163.669220 13.460619 6.403749
v 163.669220 11.684051 6.403749
v 163.669220 13.460619 4.403749
v 163.669220 11.684051 -10.908755
v 163.669220 11.684051 4.403749
v 163.669220 11.684051 -12.978457
v 163.669220 13.460619 -10.908755
v 163.669220 13.460619 -12.978457
v 163.669220 11.684051 5.403749
v 168.551910 13.460619 4.403749
v 168.551910 13.460619 6.403749
v 168.551910 11.684051 4.403749
v 168.551910 11.684051 6.403749
v 168.551910 11.684051 -12.978457
v 168.551910 13.460619 -12.978457
v 168.551910 11.684051 -10.908755
v 168.551910 13.460619 -10.908755
v 166.550781 -0.955458 4.403749
v 166.550781 -0.955458 6.403749
v 166.550781 -0.955458 -10.908755
v 166.550781 -0.955458 -12.978457
v 168.551910 -0.955458 4.403749
v 168.551910 -0.955458 6.403749
v 168.551910 -0.955458 -10.908755
v 168.551910 -0.955458 -12.978457
v 168.446930 11.684051 4.403749
v 168.446930 13.460619 4.403749
v 168.446930 13.460619 -10.908755
v 168.446930 11.684051 -10.908755
vt 0.375000 0.750000
vt 0.375000 0.500000
vt 0.375000 0.500000
vt 0.375000 0.750000
vt 0.375000 0.250000
vt 0.625000 0.250000
vt 0.625000 0.500000
vt 0.375000 0.500000
vt 0.625000 0.750000
vt 0.375000 0.750000
vt 0.625000 0.750000
vt 0.625000 1.000000
vt 0.375000 1.000000
vt 0.125000 0.500000
vt 0.375000 0.500000
vt 0.375000 0.750000
vt 0.125000 0.750000
vt 0.625000 0.500000
vt 0.875000 0.500000
vt 0.875000 0.750000
vt 0.375000 0.000000
vt 0.625000 0.000000
vt 0.625000 0.250000
vt 0.375000 0.250000
vt 0.625000 0.750000
vt 0.625000 0.750000
vt 0.625000 0.750000
vt 0.625000 0.750000
vt 0.625000 0.500000
vt 0.625000 0.250000
vt 0.625000 0.250000
vt 0.625000 0.500000
vt 0.625000 0.750000
vt 0.625000 0.750000
vt 0.875000 0.500000
vt 0.875000 0.750000
vt 0.875000 0.750000
vt 0.875000 0.500000
vt 0.875000 0.500000
vt 0.875000 0.750000
vt 0.875000 0.750000
vt 0.875000 0.750000
vt 0.875000 0.750000
vt 0.625000 0.000000
vt 0.375000 0.000000
vt 0.375000 0.000000
vt 0.625000 0.000000
vt 0.875000 0.500000
vt 0.875000 0.500000
vt 0.875000 0.750000
vt 0.875000 0.750000
vt 0.875000 0.750000
vt 0.875000 0.500000
vt 0.875000 0.750000
vt 0.375000 0.500000
vt 0.375000 0.500000
vt 0.375000 0.500000
vt 0.375000 0.500000
vt 0.625000 0.750000
vt 0.625000 0.750000
vt 0.875000 0.750000
vt 0.875000 0.500000
vt 0.875000 0.500000
vt 0.875000 0.750000
vt 0.375000 0.500000
vt 0.375000 0.500000
vt 0.625000 0.750000
vt 0.625000 0.750000
vt 0.875000 0.750000
vt 0.875000 0.750000
vt 0.875000 0.750000
vt 0.875000 0.750000
vt 0.375000 0.000000
vt 0.375000 0.250000
vt 0.375000 0.250000
vt 0.375000 0.000000
vt 0.625000 0.250000
vt 0.625000 0.250000
vt 0.625000 0.250000
vt 0.625000 0.250000
vt 0.375000 0.500000
vt 0.375000 0.500000
vt 0.625000 0.250000
vt 0.625000 0.250000
vt 0.375000 0.000000
vt 0.375000 0.000000
vt 0.375000 0.000000
vt 0.375000 0.250000
vt 0.375000 0.000000
vt 0.375000 0.000000
vt 0.375000 0.000000
vt 0.375000 0.000000
vt 0.375000 0.500000
vt 0.375000 0.500000
vt 0.375000 0.500000
vt 0.375000 0.500000
vt 0.375000 0.500000
vt 0.375000 0.500000
vt 0.375000 0.500000
vt 0.375000 0.500000
vt 0.375000 0.500000
vt 0.375000 0.500000
vt 0.375000 0.750000
vt 0.375000 0.500000
vt 0.375000 0.750000
vt 0.375000 0.000000
vt 0.375000 0.000000
vt 0.875000 0.750000
vt 0.875000 0.750000
vt 0.875000 0.750000
vt 0.875000 0.750000
vt 0.375000 0.750000
vt 0.375000 0.750000
vt 0.375000 0.500000
vt 0.375000 0.500000
vt 0.375000 0.500000
vt 0.375000 0.500000
vt 0.875000 0.750000
vt 0.875000 0.750000
vt 0.625000 0.250000
vt 0.625000 0.250000
vt 0.375000 0.250000
vt 0.375000 0.000000
vt 0.375000 0.500000
vt 0.625000 0.250000
vt 0.625000 0.250000
vt 0.375000 0.500000
vt 0.375000 0.500000
vt 0.375000 0.500000
vt 0.375000 0.500000
vt 0.375000 0.750000
vt 0.375000 0.500000
vt 0.375000 0.500000
vt 0.375000 0.750000
vt 0.875000 0.750000
vt 0.875000 0.750000
vt 0.375000 0.500000
vt 0.375000 0.500000
vt 0.375000 0.000000
vt 0.375000 0.000000
vt 0.875000 0.750000
vt 0.875000 0.750000
vn 0.0000 -1.0000 0.0000
vn 0.0000 0.0000 1.0000
vn -1.0000 0.0000 0.0000
vn 1.0000 0.0000 0.0000
vn 0.0000 0.0000 -1.0000
vn 0.0000 1.0000 0.0000
usemtl Material
s off
f 14/1/1 13/2/1 35/3/1 36/4/1
f 4/5/2 3/6/2 7/7/2 8/8/2
f 8/8/3 7/7/3 5/9/3 6/10/3
f 6/10/1 2/11/1 4/12/1 8/13/1
f 2/14/4 1/15/4 3/16/4 4/17/4
f 6/18/5 5/19/5 1/20/5 2/11/5
f 11/21/6 12/22/6 10/23/6 9/24/6
f 22/25/3 21/26/3 17/27/3 20/28/3
f 16/29/2 14/30/2 9/31/2 10/32/2
f 15/33/3 16/29/3 10/32/3 12/34/3
f 5/9/3 7/7/3 16/29/3 15/33/3
f 7/7/2 3/6/2 14/30/2 16/29/2
f 1/20/5 5/19/5 15/35/5 13/36/5
f 3/16/4 1/15/4 13/2/4 14/1/4
f 19/37/5 20/38/5 17/39/5 18/40/5
f 13/36/1 23/41/1 39/42/1 35/43/1
f 21/44/6 24/45/6 18/46/6 17/47/6
f 23/41/2 22/48/2 28/49/2 27/50/2
f 13/36/1 15/35/1 22/48/1 23/41/1
f 12/22/6 11/21/6 24/45/6 21/44/6
f 19/37/5 18/40/5 38/51/5 37/52/5
f 15/33/3 12/34/3 21/26/3 22/25/3
f 27/50/2 28/49/2 32/53/2 31/54/2
f 19/55/4 23/56/4 27/57/4 26/58/4
f 22/25/3 20/28/3 25/59/3 28/60/3
f 20/38/5 19/37/5 26/61/5 25/62/5
f 31/54/1 32/53/1 29/63/1 30/64/1
f 26/58/4 27/57/4 31/65/4 30/66/4
f 28/60/3 25/59/3 29/67/3 32/68/3
f 25/62/5 26/61/5 30/64/5 29/63/5
f 53/69/1 52/70/1 47/71/1 43/72/1
f 51/73/6 49/74/6 42/75/6 41/76/6
f 49/77/2 50/78/2 44/79/2 42/80/2
f 23/56/1 19/55/1 37/81/1 39/82/1
f 9/31/2 14/30/2 36/83/2 34/84/2
f 18/46/6 24/45/6 40/85/6 38/86/6
f 24/45/6 11/21/6 33/87/6 40/85/6
f 11/21/6 9/24/6 34/88/6 33/87/6
f 46/89/6 48/90/6 73/91/6 71/92/6
f 43/93/5 41/94/5 66/95/5 68/96/5
f 41/94/2 43/93/2 82/97/2 83/98/2
f 52/99/1 54/100/1 45/101/1 47/102/1
f 50/103/1 53/104/1 43/93/1 44/105/1
f 56/106/6 55/107/6 48/90/6 46/89/6
f 55/107/6 51/73/6 41/76/6 48/90/6
f 54/108/5 56/109/5 46/110/5 45/111/5
f 37/52/5 38/51/5 56/109/5 54/108/5
f 40/85/6 33/87/6 51/73/6 55/107/6
f 38/86/6 40/85/6 55/107/6 56/106/6
f 36/4/1 35/3/1 53/104/1 50/103/1
f 39/82/1 37/81/1 54/100/1 52/99/1
f 34/84/2 36/83/2 50/78/2 49/77/2
f 33/87/6 34/88/6 49/74/6 51/73/6
f 35/43/1 39/42/1 52/70/1 53/69/1
f 69/112/4 68/96/4 66/95/4 67/113/4
f 73/114/4 72/115/4 70/116/4 71/117/4
f 45/111/5 46/110/5 71/118/5 70/119/5
f 42/80/2 44/79/2 69/120/2 67/121/2
f 41/76/6 42/75/6 67/122/6 66/123/6
f 48/124/2 47/102/2 72/115/2 73/114/2
f 69/120/2 44/79/2 75/125/2 79/126/2
f 72/115/2 47/102/2 76/127/2 80/128/2
f 76/127/1 77/129/1 81/130/1 80/128/1
f 75/131/1 74/132/1 78/133/1 79/134/1
f 43/93/5 68/96/5 78/133/5 74/132/5
f 70/116/4 72/115/4 80/128/4 81/130/4
f 68/96/4 69/112/4 79/134/4 78/133/4
f 45/111/5 70/119/5 81/135/5 77/136/5
f 47/102/3 45/101/3 77/129/3 76/127/3
f 44/105/3 43/93/3 74/132/3 75/131/3
f 83/98/4 82/97/4 85/137/4 84/138/4
f 48/90/6 41/76/6 83/139/6 84/140/6
f 47/102/5 48/124/5 84/138/5 85/137/5
f 43/72/1 47/71/1 85/141/1 82/142/1
l 64 62
l 59 63
l 63 64
l 65 58
l 62 60
l 58 57
l 57 59
l 60 61
l 61 65
